<?xml version="1.0" encoding="UTF-8"?>
<svg xmlns="http://www.w3.org/2000/svg" width="800" height="679.37" xmlns:xlink="http://www.w3.org/1999/xlink" viewBox="0 0 800 679.37">
  <defs>
    <style>
      .cls-1 {
        fill: none;
        stroke: #fff;
        stroke-width: 1.5px;
      }

      .cls-1, .cls-2 {
        stroke-miterlimit: 10;
      }

      .cls-3 {
        fill: url(#Degradado_sin_nombre_13);
      }

      .cls-3, .cls-4, .cls-5, .cls-6, .cls-7, .cls-8, .cls-9, .cls-10, .cls-11, .cls-12, .cls-13, .cls-14, .cls-15, .cls-16, .cls-17, .cls-18, .cls-19 {
        stroke-width: 0px;
      }

      .cls-4 {
        fill: url(#Degradado_sin_nombre_10);
      }

      .cls-5 {
        fill: #603dad;
        mix-blend-mode: multiply;
        opacity: .16;
      }

      .cls-6 {
        fill: #b597ff;
        opacity: .33;
      }

      .cls-7 {
        fill: url(#Degradado_sin_nombre_13-2);
      }

      .cls-8 {
        fill: url(#Degradado_sin_nombre_13-3);
      }

      .cls-9 {
        fill: url(#Degradado_sin_nombre_10-2);
      }

      .cls-20 {
        isolation: isolate;
      }

      .cls-10 {
        opacity: .61;
      }

      .cls-10, .cls-16 {
        fill: #fff;
      }

      .cls-2 {
        stroke: #8b46f6;
        stroke-width: .75px;
      }

      .cls-2, .cls-13 {
        fill: #8b46f6;
      }

      .cls-11 {
        fill: #e0a9b8;
      }

      .cls-12 {
        fill: #a576ff;
      }

      .cls-14 {
        fill: #904aff;
      }

      .cls-15 {
        fill: #ece6ff;
      }

      .cls-17 {
        fill: #e9deff;
      }

      .cls-18 {
        fill: #e6b4bd;
      }

      .cls-19 {
        fill: #03005f;
      }
    </style>
    <linearGradient id="Degradado_sin_nombre_13" data-name="Degradado sin nombre 13" x1="-6144.64" y1="484.16" x2="-6003.71" y2="330.38" gradientTransform="translate(-5676.97 1060.29) rotate(-180)" gradientUnits="userSpaceOnUse">
      <stop offset="0" stop-color="#03005f"/>
      <stop offset="1" stop-color="#170694"/>
    </linearGradient>
    <linearGradient id="Degradado_sin_nombre_10" data-name="Degradado sin nombre 10" x1="-6098.81" y1="472.7" x2="-6111.37" y2="472.7" gradientTransform="translate(-5676.97 1060.29) rotate(-180)" gradientUnits="userSpaceOnUse">
      <stop offset="0" stop-color="#ffbbba"/>
      <stop offset="1" stop-color="#ff928e"/>
    </linearGradient>
    <linearGradient id="Degradado_sin_nombre_13-2" data-name="Degradado sin nombre 13" x1="-6112.81" y1="513.33" x2="-5971.88" y2="359.55" xlink:href="#Degradado_sin_nombre_13"/>
    <linearGradient id="Degradado_sin_nombre_10-2" data-name="Degradado sin nombre 10" x1="-6053.54" y1="473.34" x2="-6064.38" y2="473.34" xlink:href="#Degradado_sin_nombre_10"/>
    <linearGradient id="Degradado_sin_nombre_13-3" data-name="Degradado sin nombre 13" x1="-6060.81" y1="857.82" x2="-6106.58" y2="821.59" xlink:href="#Degradado_sin_nombre_13"/>
  </defs>
  <g class="cls-20">
    <g id="Capa_1" data-name="Capa 1">
      <g>
        <path class="cls-6" d="m129.43,276.61c36.09-11.57,122.04,17.48,171.4-24.6C350.2,209.93,435.22.22,619.76,89.64c168.99,81.89,72.26,371.85-99.32,456.31-138.89,68.37-262.69,60.25-380.81-20-112.55-76.47-91.28-223.36-10.2-249.35Z"/>
        <g>
          <ellipse class="cls-5" cx="407.55" cy="612.46" rx="199.78" ry="28.72"/>
          <g>
            <g>
              <path class="cls-12" d="m629.93,136.99c-1.66-1.55-3.63-2.74-5.79-3.48-2.15-.74-4.44-1.02-6.71-.81-49.1,4.4-140.71-19.18-200.58-80.25-4.16-4.23-11.74-1.85-16.5,1.71-66.59,49.61-176.96,59.88-215.28,61.98-3.84.22-7.47,1.79-10.26,4.43-2.78,2.65-4.53,6.19-4.92,10-34.84,335.49,184.27,457.06,229.72,478.52,2.45,1.15,5.15,1.68,7.86,1.52,2.7-.16,5.33-.99,7.63-2.41,226.5-140.64,216.81-323.54,219.94-459.07.05-2.27-.38-4.53-1.26-6.62-.88-2.09-2.2-3.98-3.86-5.53Z"/>
              <path class="cls-1" d="m403.21,584.34c-22.64-11.6-80.57-45.64-129.43-110.96-65.41-87.45-92.73-198.2-81.22-329.15.11-1.32.69-2.55,1.63-3.48.95-.93,2.19-1.49,3.52-1.59,49.5-3.64,142.24-16.16,207.24-59.15,1.03-.68,2.26-1,3.49-.91,1.23.09,2.4.58,3.32,1.41,59.15,52.84,139.81,76.49,193.54,76.49.75,0,1.49.14,2.18.43.69.29,1.31.71,1.83,1.24.52.52.93,1.15,1.2,1.83.28.68.41,1.42.39,2.15l-.15,8.64c-1.14,64.81-2.43,138.27-28.87,210.43-29.61,80.8-86.23,146.99-173.11,202.35-.9.57-1.95.88-3.02.88-.88,0-1.76-.21-2.54-.61Zm202.05-424.72c-54.19,0-135.58-23.85-195.26-77.16-.49-.43-1.1-.7-1.75-.74-.65-.05-1.3.12-1.84.48-65.5,43.33-158.75,55.93-208.51,59.59-.7.05-1.35.34-1.85.83-.5.49-.8,1.14-.86,1.84-11.46,130.29,15.7,240.43,80.71,327.35,48.52,64.88,106.04,98.67,128.52,110.19.46.23.97.34,1.49.32.52-.03,1.01-.19,1.45-.46,86.37-55.04,142.65-120.8,172.05-201.04,26.29-71.74,27.58-144.97,28.72-209.57l.16-8.64c0-.39-.06-.77-.21-1.13-.14-.36-.36-.69-.63-.96-.28-.29-.62-.51-.99-.66s-.77-.23-1.17-.22h0Z"/>
              <path class="cls-10" d="m241.16,192.73l52.49,105.22,67.48-149.47-70.09,77.35-49.88-33.11Z"/>
            </g>
            <g>
              <path class="cls-18" d="m536.9,226.85c.34,1.08-3.61,2.73-5.93-1.7-.08-2.11-1.37-11.2-.11-12.92,6.76-9.19,19.88-20.71,19.88-20.71,2.22,2.18.39,4.32.39,4.32l-6.36,6.61c1.33,2.4,2.95,4.42,3.71,7.32.56,2.21.24,4.55-.89,6.54-1.12,2.01-2.65,4.62-4.08,6.65-2.72,3.86-6.61,3.89-6.61,3.89Z"/>
              <path class="cls-3" d="m423.04,587.62s-1.47,8.27-2.18,16.45c-.06.76.03,1.52.27,2.25.24.72.62,1.39,1.13,1.96.5.57,1.12,1.03,1.81,1.36.69.33,1.44.51,2.2.54,10.93.45,34.3,1.34,42.69.96.29-.02.58-.1.83-.25.25-.15.46-.35.62-.6.16-.24.25-.52.28-.81.03-.29,0-.58-.11-.85-.39-.98-1.15-1.77-2.11-2.21l-38.61-17.7-6.82-1.09Z"/>
              <path class="cls-4" d="m421.84,582.76l1.18,9.89s6.76,3.14,11.39-.4l-2.8-11.02-9.76,1.53Z"/>
              <path class="cls-19" d="m422.72,396.91c-.51,2.58-2.73,128.83,10.81,185.41.11.45.06.92-.15,1.33-.21.41-.56.73-.98.91-3.52,1.36-7.25,2.11-11.03,2.23-.73.02-1.46-.2-2.05-.63-.6-.43-1.03-1.05-1.24-1.75-3.87-13.13-22.41-78.89-24.83-141.72-2.7-70.2,0-2.39,0-2.39l1.59-43.4h27.88Z"/>
              <path class="cls-7" d="m378.6,591.93s-2.33,4.17-4.59,15.26c-.1.47-.1.96,0,1.43.1.47.31.92.59,1.3.29.39.65.71,1.07.95.42.24.89.39,1.37.43,3.61.35,9.16.81,13.61.78.48,0,.96-.11,1.4-.31.44-.2.83-.49,1.16-.85.32-.36.56-.79.71-1.24.15-.46.19-.95.14-1.43-.49-4.05-2.03-10.69-6.77-15.85l-8.69-.48Z"/>
              <path class="cls-9" d="m376.57,579.21l2.75,14.95s2.72,2.01,8.09.55l-1.31-16.08-9.53.58Z"/>
              <path class="cls-19" d="m369.14,400.78c-11.07,66.61,2.4,164.62,6.94,183.81.14.58.44,1.1.87,1.5.43.4.97.67,1.56.77,2.03.33,5.37.61,8.66-.34.55-.16,1.04-.49,1.4-.95.36-.45.56-1,.58-1.58.61-15.51-.49-110.72,9.82-148.36.52-1.9,1.69-3.57,3.31-4.71l20.02-14.19,1.53-22.94-54.7,6.99Z"/>
              <path class="cls-18" d="m537.69,225.85c-3.26-3.92-7.39-2.07-7.39-2.07-4.88,20.56-30.48,37.23-56.79,45.38,1.72,7.29,5.67,19.62,14.05,29.33,43.66-24.48,50.12-72.64,50.12-72.64Z"/>
              <path class="cls-15" d="m333.81,330.86c5.09-26.58,36.02-47.56,36.09-47.6,0,0,0,0,0,0,0,0,36.61-9.23,69.79-8.68,10.22.17,22.11-1.77,33.84-5.42,1.7,7.3,5.66,19.64,14.05,29.33-10.99,6.17-24.34,10.83-40.56,12.83,0,0-19.92,67.67-24.19,91.72,0,0-28.97,10.82-54.66,4.11,0,0-4.44-36.15-2.79-78.22-2.27,2.8-4.03,5.89-4.62,9.15-10.43-5.25-21.09-6.77-26.94-7.2Z"/>
              <path class="cls-18" d="m406.08,247.72l-10.56,30.44c-.09.24-.08.51.01.75.09.24.26.44.49.57,2.88,1.59,13.25,6.17,25.74-1.73.65-.41,1.19-.95,1.61-1.59.41-.64.68-1.36.78-2.11l3.42-26.34h-21.49Z"/>
              <path class="cls-18" d="m429.05,219.53s11.59,21.75,10.11,30.54c-1.49,8.78-15.85,8.16-28.4,1.02l-8.77-23.49,27.06-8.07Z"/>
              <path class="cls-8" d="m411.31,239.56c.12-.05.23-.13.32-.23.09-.1.15-.22.19-.34.04-.13.05-.26.03-.39-.02-.13-.07-.25-.14-.36-.93-1.41-2.67-4.3-3.23-6.82,0,0-2.08-1.32,5.3-3.09,7.39-1.77,18.4-4.49,20.72-10.77,2.26-6.11-3.67-21.48-13.14-9.25-.09.11-.19.2-.32.26-.12.06-.26.09-.4.09s-.27-.03-.4-.09c-.12-.06-.23-.15-.32-.26-1.55-2.01-5.63-6.19-11.29-3.66-5.3,2.38-5.9,6.24-5.83,8.19,0,.13-.02.27-.07.39-.05.12-.13.23-.23.32-.1.09-.22.15-.35.19-.13.04-.26.04-.4.01-2.68-.51-9.11-.95-12.11,5.63-2.47,5.42-.87,8.48.6,9.98.11.11.19.25.23.39.04.15.04.31,0,.46-.04.15-.12.28-.22.4-.11.11-.24.19-.39.23-1.76.53-4.03,2.03-3.81,6.14.32,5.68,6.69,5.18,8.51,4.93.15-.02.29,0,.43.04.14.05.26.13.36.24,1.56,1.72,8.57,9.01,16.17,9.89.15.01.31,0,.45-.07.14-.06.26-.15.36-.27.09-.12.16-.26.18-.41.02-.15.01-.3-.04-.45l-3.29-9.51c-.07-.21-.06-.45.03-.65.09-.21.25-.37.46-.46l1.64-.69Z"/>
              <path class="cls-18" d="m360.75,338.06s-10.83,48.71-1.02,76.1c-12.03,5.55-9.81,4.51-9.81,4.51,0,0-23.8-69.31-16.12-87.81,15.15-1.6,22.66,2.45,26.95,7.2Z"/>
              <path class="cls-18" d="m359.73,414.16s6.2,8,5.7,11.18c-.49,3.18-.61,4.49-.61,4.49,0,0-3.12-2.11-2.92-4.84.43,8.61,3.32,18.4.69,17.93-2.63-.47-16.24-12.98-13.16-26.31,6.98-4.84,8.94-4.32,10.29-2.46Z"/>
              <path class="cls-11" d="m412.63,240.91s-8.25-5.64-8.85-.89c-.6,4.75,7.42,6.89,11.41,5.11l-2.56-4.22Z"/>
            </g>
          </g>
        </g>
        <g>
          <circle class="cls-16" cx="653.72" cy="438.3" r="70.24"/>
          <g>
            <path class="cls-13" d="m684.86,435.72c-.74,0-1.47.06-2.18.15l-.93-3.48c1.01-.16,2.05-.26,3.11-.26,1.47,0,2.94.18,4.37.52.69.16,1.42-.1,1.84-.66,4.15-5.48,4.39-8.74.94-12.94-4.45-5.42-8.54-8.2-12.52-8.51-2.98-.23-5.84.92-8.78,3.54-.38.34-.6.84-.6,1.35s.23,1.01.63,1.34l2.92,2.5c-.12.52-.22,1.01-.32,1.46-.24,1.16-.44,2.09-.75,2.84-.42-.24-.84-.48-1.24-.72-6.01-3.52-10.74-6.29-15.57-4.95-3.21.89-6.02,3.53-8.8,8.26l-13.56-3.89-.83-2.58c-.87-2.67-2.7-4.13-5.8-4.59l-15.34-2.59c-.65-.11-1.3.14-1.7.65-.41.52-.49,1.21-.24,1.8,3.82,9.06,5.27,11.46,10.73,14.17l13.17,6.55c3.39,1.69,4.61,2.98,5.67,6.01l2.58,7.47h-2.87c-.89-7.55-7.32-13.42-15.1-13.42-8.38,0-15.21,6.82-15.21,15.21s6.82,15.21,15.21,15.21c7.78,0,14.21-5.88,15.1-13.42h4.11l1.75,5.05c.25.72.93,1.21,1.69,1.21h18.94c.57,0,1.11-.27,1.45-.74.34-.46.43-1.05.26-1.6-.59-1.84-.89-3.77-.89-5.72,0-8.05,5.09-14.93,12.21-17.6l.93,3.48c-5.6,2.24-9.57,7.72-9.57,14.13,0,8.38,6.82,15.21,15.21,15.21s15.21-6.82,15.21-15.21-6.85-15.21-15.23-15.21h0Zm-61.19,26.83c-6.41,0-11.63-5.22-11.63-11.63s5.22-11.63,11.63-11.63c5.8,0,10.63,4.27,11.49,9.84h-3.65c-.81-3.58-4.02-6.26-7.85-6.26-4.44,0-8.05,3.61-8.05,8.05s3.61,8.05,8.05,8.05c3.82,0,7.03-2.68,7.85-6.26h3.65c-.86,5.57-5.68,9.84-11.49,9.84Zm0-9.84h4.1c-.69,1.58-2.26,2.68-4.1,2.68-2.47,0-4.47-2.01-4.47-4.47s2.01-4.47,4.47-4.47c1.83,0,3.4,1.11,4.1,2.68h-4.1c-.99,0-1.79.8-1.79,1.79s.8,1.79,1.79,1.79h0Zm33.07-31.36c3.37-.93,7.53,1.5,12.81,4.59.14.08.29.16.43.25-.31.14-.64.3-1.01.44l-8.6,3.36-9.82-2.81c2.09-3.35,4.12-5.26,6.19-5.83h0Zm9.53,17.15h-5.84c-.99,0-1.79.8-1.79,1.79s.8,1.79,1.79,1.79h3.89c-.49,1.14-.9,2.34-1.2,3.58h-6.71c-.99,0-1.79.8-1.79,1.79s.8,1.79,1.79,1.79h6.15c-.04.56-.07,1.13-.07,1.7,0,1.5.15,3.01.45,4.47h-15.36s-5.15-14.91-5.15-14.91c-1.53-4.4-3.79-6.22-7.45-8.04l-13.17-6.55c-3.69-1.83-5-3.21-7.72-9.35l12.13,2.05s.02,0,.03.01c1.98.3,2.55.98,2.93,2.15l1.13,3.5c.19.57.64,1.01,1.21,1.16l28.45,8.14c.37.11.78.09,1.14-.06l9.16-3.58c5.23-2.04,5.85-5.03,6.58-8.49.15-.76.32-1.54.55-2.38.18-.66-.04-1.37-.56-1.81l-2.1-1.8c1.56-1.04,3.01-1.48,4.49-1.36,2.91.23,6.28,2.66,10.04,7.22.89,1.08,1.59,1.94,1.58,3.18l-2.44-1c-.91-.37-1.96.06-2.34.98-.37.91.06,1.96.98,2.34l2.55,1.04c-.21.33-.44.68-.7,1.05-1.33-.24-2.67-.36-4.03-.36-7.75,0-14.58,3.94-18.6,9.93h0Zm18.58,24.05c-6.41,0-11.63-5.22-11.63-11.62,0-4.73,2.86-8.82,6.93-10.63l.94,3.52c-2.55,1.35-4.29,4.03-4.29,7.12,0,4.44,3.61,8.05,8.05,8.05s8.05-3.61,8.05-8.05-3.61-8.05-8.05-8.05c-.1,0-.2,0-.31.01l-.95-3.53c.41-.04.82-.07,1.24-.07,6.41,0,11.63,5.22,11.63,11.63s-5.21,11.62-11.62,11.62h0Zm-1.72-11.16c.21.8.93,1.33,1.72,1.33.15,0,.31-.02.46-.07.96-.25,1.52-1.24,1.26-2.19l-1.06-3.97c2.15.32,3.8,2.19,3.8,4.43,0,2.47-2.01,4.47-4.47,4.47s-4.47-2.01-4.47-4.47c0-1.42.66-2.67,1.68-3.49l1.07,3.96Z"/>
            <path class="cls-13" d="m652.38,438.49c-.99,0-1.79.8-1.79,1.79s.8,1.79,1.79,1.79,1.79-.8,1.79-1.79-.8-1.79-1.79-1.79Z"/>
          </g>
        </g>
        <g>
          <circle class="cls-16" cx="110" cy="463.92" r="54.87"/>
          <g>
            <path class="cls-13" d="m121.93,492c3.58,0,6.54-2.96,6.54-6.54v-43.35c0-3.58-2.96-6.54-6.54-6.54h-24.08c-3.58,0-6.54,2.96-6.54,6.54v43.35c0,3.58,2.96,6.54,6.54,6.54h24.08Zm-27.87-49.88c0-2.06,1.72-3.78,3.78-3.78h24.08c2.06,0,3.78,1.72,3.78,3.78v1.51h-31.65v-1.51Zm0,4.27h31.65v33.72h-31.65v-33.72Zm0,39.08v-2.61h31.65v2.61c0,2.06-1.72,3.78-3.78,3.78h-24.08c-2.06,0-3.78-1.72-3.78-3.78h0Z"/>
            <path class="cls-13" d="m113.67,439.5h-7.57c-.76,0-1.38.62-1.38,1.38s.62,1.38,1.38,1.38h7.57c.76,0,1.38-.62,1.38-1.38s-.62-1.38-1.38-1.38Z"/>
            <path class="cls-13" d="m111.95,485.81c0,1.14-.92,2.06-2.06,2.06s-2.06-.92-2.06-2.06.92-2.06,2.06-2.06,2.06.92,2.06,2.06"/>
          </g>
        </g>
        <g>
          <circle class="cls-16" cx="94.41" cy="125.98" r="87.8"/>
          <path class="cls-13" d="m146.31,111.94l-50.84-33.89c-.81-.53-1.86-.53-2.66,0l-50.84,33.89c-.61.4-1.01,1.04-1.09,1.77-.07.73.18,1.45.7,1.96l7.26,7.26c.82.81,2.09.93,3.05.29l3.51-2.42v41.57c0,.64.25,1.26.71,1.71s1.07.71,1.71.71h72.63c.64,0,1.26-.26,1.71-.71.45-.45.71-1.07.71-1.71v-41.47l3.51,2.42h0c.4.24.87.35,1.33.31.64,0,1.26-.25,1.72-.7l7.26-7.26c.52-.51.77-1.24.7-1.96-.08-.72-.48-1.37-1.09-1.77h0Zm-59.44,48.01v-26.63h14.53v26.63h-14.53Zm41.16,0h-21.79v-29.05c0-.64-.25-1.26-.71-1.71-.45-.45-1.07-.71-1.71-.71h-19.37c-1.34,0-2.42,1.08-2.42,2.42v29.05h-21.79v-42.27l33.89-22.61,33.89,22.61v42.27Zm9.37-41.86l-41.93-27.94c-.81-.53-1.86-.53-2.66,0l-41.93,27.94-3.78-3.75,47.04-31.38,47.04,31.47-3.78,3.66Zm-67.47,37.02h-4.84v-21.79h4.84v21.79Zm0-26.63h-4.84v-7.26h4.84v7.26Z"/>
        </g>
        <g>
          <circle class="cls-16" cx="721.11" cy="274.1" r="70.24"/>
          <g>
            <path class="cls-2" d="m773.2,276.38c-1.51-2.12-3.72-3.64-6.25-4.3l-18-4.7-9.05-5.46c-8.66-6.65-20.82-6.16-21.33-6.16h-17.96c-.96,0-1.91.2-2.79.59l-20.05,8.79-6.26.98c-.99.15-1.89.66-2.54,1.42-.65.76-1,1.73-.99,2.73v.51h0v10.48h0v.07c0,2.53,1.02,4.96,2.81,6.75,1.79,1.79,4.23,2.8,6.76,2.8h0s4.73,0,4.73,0c.44,1.69,1.32,3.25,2.58,4.51,1.85,1.85,4.36,2.89,6.98,2.9,2.62,0,5.13-1.04,6.98-2.89,1.26-1.26,2.14-2.82,2.58-4.51h41.15c.44,1.69,1.32,3.25,2.58,4.51,1.85,1.85,4.36,2.89,6.98,2.9,2.62,0,5.13-1.04,6.98-2.89,1.26-1.26,2.14-2.82,2.58-4.51h10.2c.61,0,1.2-.2,1.68-.58.47-.38.8-.92.92-1.52.34-1.69.6-3.39.76-5.1.21-2.6-.51-5.19-2.02-7.31Zm-1.83,1.23c.79,1.11,1.31,2.38,1.52,3.71l-1.89-.32h0c-.7-.11-1.21-.74-1.17-1.45l.19-3.41c.5.44.95.93,1.35,1.48Zm-52.74-19.61c.17,0,11.91-.45,19.96,5.72l.11.08,7.79,4.66c-2.24,1.03-5.92,1.13-7.39,1.04l-20.45-.95-1.32-10.56h1.29Zm-19.92.41c.6-.27,1.24-.41,1.9-.41h14.47l1.31,10.45-19.24-.89c-.3-.02-.59-.13-.82-.32l-6.07-5.12,8.45-3.71Zm-28.5,14.62h2.67c.11,0,.21.1.21.21v5.58c0,.11-.1.21-.21.21h-2.67v-6.01Zm27.03,20.79c-1.43,1.43-3.38,2.24-5.4,2.24s-3.97-.81-5.4-2.24c-1.43-1.43-2.24-3.38-2.24-5.4,0-2.03.81-3.97,2.24-5.4,1.43-1.43,3.37-2.24,5.4-2.24,2.03,0,3.97.8,5.4,2.24,1.43,1.43,2.24,3.38,2.24,5.4s-.8,3.97-2.24,5.4Zm60.26,0c-1.43,1.43-3.38,2.24-5.4,2.24s-3.97-.81-5.4-2.24c-1.43-1.43-2.24-3.38-2.24-5.4s.8-3.97,2.24-5.4c1.43-1.43,3.38-2.24,5.4-2.24s3.97.8,5.4,2.24c1.43,1.43,2.24,3.38,2.24,5.4s-.81,3.97-2.24,5.4Zm14.42-5.17h-9.96c0-.08,0-.16,0-.24,0-2.62-1.04-5.13-2.89-6.98-1.85-1.85-4.36-2.89-6.98-2.89s-5.13,1.04-6.98,2.89c-1.85,1.85-2.89,4.36-2.89,6.98,0,.08,0,.16,0,.24h-40.53c0-.08,0-.16,0-.24,0-2.62-1.04-5.13-2.89-6.98-1.85-1.85-4.36-2.89-6.98-2.89s-5.13,1.04-6.98,2.89c-1.85,1.85-2.89,4.36-2.89,6.98,0,.08,0,.16,0,.24h-4.42c-1.95,0-3.81-.77-5.19-2.15-1.38-1.38-2.15-3.24-2.15-5.19v-.04h2.67c.65,0,1.27-.26,1.73-.72s.72-1.08.72-1.73v-5.58c0-.65-.26-1.27-.72-1.73-.46-.46-1.08-.72-1.73-.72h-2.67v-.51c0-.96.7-1.78,1.65-1.92l6.7-1.12,9.41-4.13,6.91,5.83c.61.51,1.36.81,2.16.85l41.94,1.94,1.05.02c2.08,0,6.39-.24,8.77-2.11l17.55,4.54c.52.13,1.02.31,1.5.53l-.25,4.7h0c-.06.9.22,1.78.78,2.49.56.7,1.36,1.17,2.25,1.32l2.33.4c-.14,1.59-.36,3.17-.66,4.74-.04.17-.19.29-.37.29Z"/>
            <path class="cls-2" d="m691.84,282.65c-1.53,0-3,.61-4.08,1.69-1.08,1.08-1.69,2.55-1.69,4.08s.61,3,1.69,4.08,2.55,1.69,4.08,1.69,3-.61,4.08-1.69c1.08-1.08,1.69-2.55,1.69-4.08s-.61-3-1.69-4.08c-1.08-1.08-2.55-1.69-4.08-1.69Zm2.5,8.28c-.66.66-1.56,1.04-2.5,1.04s-1.84-.37-2.5-1.04c-.66-.66-1.04-1.56-1.04-2.5s.37-1.84,1.04-2.5c.66-.66,1.56-1.04,2.5-1.04s1.84.37,2.5,1.04c.66.66,1.04,1.56,1.04,2.5s-.37,1.84-1.04,2.5Z"/>
            <path class="cls-2" d="m752.1,282.65c-1.53,0-3,.61-4.08,1.69-1.08,1.08-1.69,2.55-1.69,4.08s.61,3,1.69,4.08c1.08,1.08,2.55,1.69,4.08,1.69s3-.61,4.08-1.69c1.08-1.08,1.69-2.55,1.69-4.08s-.61-3-1.69-4.08c-1.08-1.08-2.55-1.69-4.08-1.69Zm2.5,8.28c-.66.66-1.56,1.04-2.5,1.04s-1.84-.37-2.5-1.04c-.66-.66-1.04-1.56-1.04-2.5s.37-1.84,1.04-2.5c.66-.66,1.56-1.04,2.5-1.04s1.84.37,2.5,1.04c.66.66,1.04,1.56,1.04,2.5s-.37,1.84-1.04,2.5Z"/>
            <path class="cls-2" d="m731.85,276.57h-4.23c-.62,0-1.12.5-1.12,1.12s.5,1.12,1.12,1.12h4.23c.62,0,1.12-.5,1.12-1.12s-.5-1.12-1.12-1.12Z"/>
            <path class="cls-2" d="m713.4,276.57h-4.24c-.62,0-1.12.5-1.12,1.12s.5,1.12,1.12,1.12h4.24c.62,0,1.12-.5,1.12-1.12s-.5-1.12-1.12-1.12Z"/>
          </g>
        </g>
        <g>
          <circle class="cls-16" cx="62.23" cy="311.64" r="57"/>
          <g>
            <path class="cls-13" d="m79.54,302.4c.09,0,.19-.09.19-.19v-.19c.65-.37.84-1.5.65-2.62-.28-1.12-.93-1.96-1.68-2.06l-.09-.19c0-.09-.19-.19-.28-.09-1.12.56-1.68,1.87-1.4,3.18.28,1.22,1.31,2.15,2.62,2.15h0Z"/>
            <path class="cls-13" d="m43.09,319.03c0,1.6-1.3,2.9-2.9,2.9s-2.9-1.3-2.9-2.9,1.3-2.9,2.9-2.9,2.9,1.3,2.9,2.9"/>
            <path class="cls-13" d="m85.9,302.95c-2.12,0-4.14.4-5.96,1.11l-.4-.81c-.61-1.21-1.62-3.23-1.82-4.04-.3-1.11-1.52-10.21-1.52-10.21-.1-.71-.61-1.21-1.31-1.31l-6.06-.61c-.81-.1-1.62.51-1.62,1.31-.1.81.51,1.52,1.31,1.62l4.95.61,1.01,7.78h-24.66s-.81-1.82-.81-1.82h3.44c.81,0,1.41-.61,1.41-1.52,0-.81-.4-1.52-1.21-1.52h-10.61c-.81,0-1.82.71-1.82,1.51s.91,1.52,1.82,1.52h3.54l1.72,3.03-1.72,3.34-.61,1.31c-2.02-.91-4.24-1.31-6.57-1.31-9.2,0-16.68,7.48-16.68,16.68s7.48,16.57,16.68,16.57,15.87-6.27,16.57-15.36h7.18c.71,0,1.31-.3,1.62-.81l12.23-17.79,1.11,2.53.3.61c-4.85,2.93-8.09,8.19-8.09,14.25,0,9.2,7.48,16.68,16.68,16.68s16.68-7.48,16.68-16.68-7.58-16.68-16.78-16.68h0Zm-47.5,30.12c-7.48,0-13.54-6.06-13.54-13.54s6.06-13.54,13.54-13.54c1.82,0,3.54.4,5.15,1.01l-.1.1-3.94,7.28h.1c-.4-.1-.81-.2-1.31-.2-2.93,0-5.26,2.32-5.26,5.26s2.32,5.26,5.26,5.26,5.26-2.32,5.26-5.26v-.3.2c0,1.11-.1,1.31-.1,1.31h2.53s5.86,0,5.86,0c-.71,7.28-6.47,12.43-13.44,12.43h0Zm3.54-17.38l.2.2,2.22-4.14,1.72-3.23v-.1c3.13,2.12,5.26,5.36,5.66,9.4h-3.74s-4.65,0-4.65,0c0,0,0,.2.1.3-.2-1.01-.81-1.72-1.52-2.43h0Zm.71,3.94c0,2.32-1.92,4.24-4.24,4.24s-4.24-1.92-4.24-4.24,1.92-4.24,4.24-4.24,4.24,1.92,4.24,4.24Zm-1.21-4.35c.1.1.2.1.3.2-.1-.1-.2-.1-.3-.2Zm-.3-.2c-.1,0-.1-.1-.2-.1.1,0,.1.1.2.1Zm-.81-.4q-.1,0-.2-.1c.1.1.2.1.2.1Zm3.23,3.94c0,.1,0,.2.1.4,0-.2-.1-.3-.1-.4Zm12.23-.81h-.81c-.51-5.05-3.34-9.4-7.38-12.13l.81-1.41.91-1.82,10.21,15.36h-3.74Zm6.67-1.11l-10.41-15.06h20.82l-10.41,15.06Zm23.45,16.47c-7.48,0-13.54-6.06-13.54-13.54,0-4.75,2.53-8.99,6.27-11.42l1.82,4.04,1.72,3.64c-1.01.91-1.52,2.32-1.52,3.74,0,2.93,2.32,5.26,5.26,5.26s5.26-2.32,5.26-5.26-2.32-5.26-5.26-5.26c-.4,0-.71,0-1.11.1l-3.23-6.97-.3-.51c1.41-.51,3.03-.81,4.65-.81,7.48,0,13.54,6.06,13.54,13.54s-6.06,13.44-13.54,13.44h0Zm0-17.79c2.32,0,4.24,1.92,4.24,4.24s-1.92,4.24-4.24,4.24-4.24-1.92-4.24-4.24c0-2.32,1.92-4.24,4.24-4.24Z"/>
            <path class="cls-13" d="m87.02,319.03c0,1.6-1.3,2.9-2.9,2.9s-2.9-1.3-2.9-2.9,1.3-2.9,2.9-2.9,2.9,1.3,2.9,2.9"/>
          </g>
        </g>
        <g>
          <circle class="cls-14" cx="708.27" cy="96.14" r="24.01"/>
          <polygon class="cls-17" points="708.27 81.8 712.66 90.7 722.49 92.13 715.38 99.06 717.06 108.84 708.27 104.22 699.48 108.84 701.16 99.06 694.05 92.13 703.88 90.7 708.27 81.8"/>
        </g>
      </g>
    </g>
  </g>
</svg>